<svg width="372" height="331" viewBox="0 0 372 331" fill="none" xmlns="http://www.w3.org/2000/svg">
<g clip-path="url(#clip0_809_12291)">
<path d="M37.0641 161.875C45.7599 173.28 55.6397 183.763 64.003 195.418C76.0861 212.255 84.7057 231.495 89.5426 251.651L89.5436 251.652C93.1832 266.81 94.6823 282.485 93.906 298.044C93.7423 301.351 93.4746 304.656 93.1029 307.946C93.0916 308.053 93.0792 308.159 93.0669 308.263C92.1588 309.109 91.2548 309.949 90.3539 310.785C89.8989 311.211 89.4417 311.636 88.9877 312.059C88.6407 312.38 88.2958 312.702 87.9509 313.023C87.6822 313.274 87.4135 313.525 87.1447 313.773C82.8946 307.646 76.9828 302.433 72.0182 296.853C62.5585 286.221 55.0735 273.974 49.4283 260.884C49.1246 260.185 48.827 259.481 48.5367 258.775C45.8783 252.352 43.6555 245.737 41.8547 239.02C41.3235 237.041 40.8293 235.053 40.3701 233.061C34.9947 209.678 35.0359 185.785 37.0641 161.875Z" fill="#5A8076"/>
<path d="M88.986 312.317C88.8666 312.317 88.7595 312.233 88.7338 312.111C88.0872 308.969 87.4396 305.83 86.792 302.689C86.4708 301.126 86.2226 299.933 85.9889 298.821C85.4175 296.082 84.6484 292.479 83.763 288.887C82.9362 285.538 82.1043 282.565 81.2168 279.8C79.5819 274.7 77.5423 269.643 75.5696 264.752L75.5614 264.733C63.7933 235.559 52.0253 206.384 40.2572 177.212C40.2037 177.08 40.2675 176.929 40.3993 176.876C40.5311 176.823 40.6814 176.887 40.7339 177.019C52.5009 206.191 64.27 235.365 76.0381 264.54L76.0463 264.559C78.0221 269.459 80.0647 274.525 81.7059 279.644C82.5965 282.42 83.4325 285.404 84.2613 288.765C85.1488 292.366 85.9189 295.975 86.4913 298.716C86.7251 299.829 86.9732 301.023 87.2944 302.587C87.942 305.728 88.5896 308.868 89.2362 312.009C89.265 312.148 89.1754 312.284 89.0365 312.313C89.021 312.315 89.0035 312.317 88.986 312.317Z" fill="#07242B"/>
<path d="M101.635 211.744C116.011 241.075 115.814 275.592 98.8398 302.783C98.7811 302.877 98.7234 302.971 98.6637 303.064C96.8126 304.783 94.9779 306.488 93.1596 308.177C93.1411 308.1 93.1236 308.024 93.103 307.947C91.9962 303.435 90.9121 298.906 89.9947 294.352L89.9937 294.351C88.6861 287.866 87.7183 281.33 87.5103 274.722C87.2653 266.948 88.0694 259.257 89.5438 251.652L89.5427 251.651C92.1712 238.087 96.9258 224.79 101.635 211.744Z" fill="#4A6C61"/>
<path d="M93.6189 307.897C93.6075 307.897 93.5973 307.895 93.5859 307.894C93.4449 307.876 93.345 307.747 93.3635 307.606C97.103 278.478 99.8849 248.846 101.631 219.532C101.639 219.39 101.761 219.279 101.903 219.29C102.045 219.298 102.153 219.421 102.145 219.562C100.398 248.888 97.6147 278.532 93.8732 307.671C93.8577 307.802 93.7465 307.897 93.6189 307.897Z" fill="#07242B"/>
<path d="M80.0491 285.238C82.3523 289.635 84.4228 294.152 86.242 298.769C87.7987 302.708 89.1722 306.718 90.3531 310.787C89.898 311.213 89.4409 311.638 88.9869 312.061C88.6399 312.383 88.295 312.704 87.9501 313.025C87.6814 313.277 87.4126 313.527 87.1439 313.776C86.9874 313.921 86.832 314.065 86.6755 314.211C82.446 310.987 77.9797 308.234 73.3322 305.232C67.0579 301.179 60.4357 297.676 54.2994 293.416C34.6448 279.775 21.701 259.071 12.6521 236.715C10.214 230.694 8.06018 224.554 6.13281 218.397C19.0149 223.4 31.0506 230.425 41.8539 239.022C57.5941 251.546 70.7191 267.411 80.0491 285.238Z" fill="#4A6C61"/>
<path d="M87.9504 313.282C87.8403 313.282 87.7373 313.209 87.7044 313.098C82.747 296.606 70.7524 283.169 59.8997 271.87C56.4104 268.237 52.8265 264.603 49.2466 261.069C46.8786 258.731 44.4581 256.381 42.0509 254.083C35.7921 248.111 29.2986 242.191 22.7505 236.486L22.1626 235.975C17.962 232.319 13.6172 228.539 10.5171 223.826C10.4389 223.708 10.4718 223.548 10.5902 223.469C10.7086 223.391 10.8682 223.424 10.9464 223.543C14.0074 228.197 18.3244 231.953 22.4993 235.586L23.0872 236.098C29.6415 241.808 36.1412 247.733 42.4051 253.71C44.8143 256.009 47.2379 258.361 49.607 260.702C53.1899 264.239 56.777 267.877 60.2693 271.514C65.5335 276.995 71.6111 283.564 76.7744 290.729C82.2486 298.326 85.985 305.594 88.1965 312.951C88.2377 313.087 88.1605 313.231 88.0246 313.271C87.9999 313.277 87.9741 313.282 87.9504 313.282Z" fill="#07242B"/>
<path d="M346.195 201.943C339.801 209.581 332.613 216.539 326.442 224.36C317.525 235.659 310.934 248.734 306.94 262.565L306.939 262.566C303.933 272.967 302.396 283.795 302.442 294.616C302.451 296.916 302.533 299.218 302.686 301.513C302.691 301.586 302.697 301.662 302.702 301.734C303.305 302.349 303.906 302.962 304.505 303.57C304.807 303.881 305.111 304.189 305.413 304.497C305.643 304.732 305.873 304.965 306.102 305.198C306.28 305.381 306.459 305.563 306.637 305.745C309.78 301.629 314.047 298.199 317.669 294.485C324.569 287.408 330.15 279.149 334.482 270.246C334.714 269.771 334.943 269.292 335.166 268.811C337.214 264.439 338.966 259.92 340.429 255.317C340.86 253.961 341.266 252.597 341.648 251.229C346.116 235.177 346.845 218.597 346.195 201.943Z" fill="#5A8076"/>
<path d="M305.411 304.754C305.39 304.754 305.368 304.751 305.347 304.746C305.209 304.711 305.125 304.57 305.16 304.432C305.709 302.273 306.257 300.115 306.807 297.957C307.032 297.07 307.258 296.183 307.487 295.296C307.971 293.412 308.62 290.933 309.351 288.46C310.032 286.153 310.708 284.109 311.414 282.207C312.715 278.705 314.294 275.254 315.821 271.917L315.827 271.903C324.916 252.035 334.006 232.168 343.094 212.3C343.153 212.171 343.306 212.113 343.435 212.173C343.565 212.233 343.621 212.385 343.561 212.514C334.472 232.381 325.383 252.25 316.294 272.118L316.288 272.131C314.765 275.461 313.191 278.903 311.896 282.387C311.194 284.277 310.522 286.31 309.844 288.605C309.116 291.07 308.468 293.544 307.985 295.424C307.757 296.311 307.53 297.197 307.306 298.083C306.757 300.242 306.208 302.4 305.66 304.559C305.631 304.676 305.526 304.754 305.411 304.754Z" fill="#07242B"/>
<path d="M299.815 234.493C288.911 254.387 287.954 278.342 298.87 297.748C298.907 297.815 298.946 297.882 298.984 297.948C300.214 299.198 301.432 300.441 302.641 301.67C302.656 301.617 302.671 301.565 302.687 301.512C303.598 298.417 304.493 295.309 305.274 292.179L305.275 292.178C306.388 287.72 307.267 283.215 307.621 278.638C308.037 273.251 307.723 267.89 306.941 262.567L306.942 262.566C305.546 253.071 302.67 243.695 299.815 234.493Z" fill="#4A6C61"/>
<path d="M302.339 301.54C302.206 301.54 302.094 301.438 302.082 301.304C300.409 280.967 299.418 260.31 299.135 239.904C299.133 239.761 299.246 239.644 299.388 239.642C299.533 239.642 299.648 239.753 299.65 239.895C299.933 260.29 300.924 280.936 302.596 301.261C302.608 301.403 302.503 301.527 302.36 301.539C302.353 301.54 302.346 301.54 302.339 301.54Z" fill="#07242B"/>
<path d="M312.464 286.171C310.727 289.149 309.147 292.216 307.738 295.361C306.533 298.044 305.453 300.783 304.504 303.569C304.807 303.879 305.11 304.188 305.412 304.496C305.643 304.731 305.872 304.964 306.101 305.197C306.279 305.38 306.458 305.562 306.636 305.744C306.74 305.849 306.843 305.955 306.947 306.06C309.984 303.959 313.17 302.19 316.49 300.254C320.972 297.642 325.678 295.421 330.07 292.661C344.139 283.821 353.776 269.867 360.763 254.643C362.645 250.542 364.335 246.351 365.867 242.141C356.77 245.203 348.197 249.694 340.429 255.315C329.111 263.508 319.502 274.098 312.464 286.171Z" fill="#4A6C61"/>
<path d="M306.101 305.456C306.073 305.456 306.045 305.451 306.016 305.441C305.882 305.394 305.811 305.248 305.858 305.112C309.853 293.736 318.643 284.749 326.567 277.218C329.106 274.806 331.711 272.395 334.309 270.055C336.027 268.506 337.782 266.951 339.529 265.432C344.067 261.481 348.765 257.575 353.493 253.823L353.917 253.487C356.924 251.103 360.035 248.637 362.3 245.513C362.383 245.398 362.545 245.373 362.659 245.457C362.774 245.54 362.8 245.701 362.716 245.816C360.408 248.997 357.27 251.486 354.236 253.891L353.812 254.227C349.09 257.976 344.398 261.876 339.865 265.821C338.122 267.338 336.368 268.892 334.653 270.439C332.058 272.776 329.456 275.183 326.92 277.593C319.039 285.082 310.299 294.015 306.342 305.284C306.307 305.39 306.207 305.456 306.101 305.456Z" fill="#07242B"/>
<path d="M254.027 105.131C253.373 102.266 256.467 98.2983 260.113 96.6381C264.699 94.5491 268.959 96.6536 269.506 96.9351C269.674 95.7596 270.257 92.8292 272.679 90.339C273.341 89.6574 276.976 85.9196 281.825 86.9899C285.252 87.7467 287.985 90.6205 288.855 94.3119C289.076 93.6912 289.668 92.3105 291.1 91.3567C291.487 91.0989 292.096 90.6731 292.905 90.6298C294.752 90.5308 296.188 92.3487 296.64 92.9632C296.878 82.9407 304.786 74.934 314.114 74.5514C322.465 74.2091 330.293 80.0463 332.536 88.6634C333.326 88.3283 334.489 87.9066 335.938 87.6436C337.916 87.2848 342.895 86.3805 346.249 89.4306C349.17 92.0857 349.14 96.1741 349.11 97.1176C350.069 96.4824 352.228 95.2585 354.994 95.44C359.215 95.7184 361.811 99.0747 362.947 100.543C363.484 101.238 366.325 104.911 366 107.306C364.416 118.941 286.458 112.751 275.303 111.865C267.479 111.244 255.163 110.104 254.027 105.131Z" fill="#7E92A2"/>
<path d="M6.04101 115.653C5.54681 113.489 7.88395 110.492 10.6381 109.237C14.1016 107.66 17.32 109.25 17.7329 109.462C17.8595 108.574 18.3012 106.36 20.1297 104.48C20.6301 103.965 23.376 101.141 27.0382 101.95C29.6275 102.523 31.6918 104.692 32.3487 107.481C32.5155 107.012 32.9634 105.969 34.0455 105.249C34.3379 105.054 34.797 104.733 35.4086 104.7C36.8037 104.625 37.8889 105.999 38.2307 106.464C38.4109 98.893 44.3844 92.8445 51.4298 92.5557C57.738 92.2969 63.6509 96.7071 65.3456 103.216C65.9417 102.962 66.8199 102.644 67.9154 102.445C69.4093 102.174 73.1703 101.49 75.7041 103.795C77.9105 105.801 77.8879 108.889 77.8642 109.602C78.589 109.122 80.2199 108.198 82.3089 108.335C85.4975 108.545 87.4588 111.081 88.3164 112.189C88.7221 112.714 90.8688 115.489 90.6227 117.299C89.4263 126.087 30.5377 121.411 22.1116 120.742C16.2009 120.271 6.89864 119.409 6.04101 115.653Z" fill="#7E92A2"/>
<path d="M127.961 31.4957C127.307 28.6313 130.401 24.6635 134.047 23.0034C138.632 20.9143 142.893 23.0188 143.439 23.3003C143.607 22.1249 144.191 19.1944 146.613 16.7042C147.275 16.0226 150.91 12.2848 155.758 13.3551C159.186 14.112 161.918 16.9857 162.788 20.6772C163.01 20.0564 163.602 18.6757 165.034 17.7219C165.421 17.4642 166.029 17.0383 166.839 16.995C168.686 16.896 170.122 18.7139 170.574 19.3284C170.812 9.30589 178.72 1.29919 188.048 0.91664C196.399 0.574306 204.227 6.41152 206.47 15.0286C207.26 14.6935 208.422 14.2718 209.872 14.0089C211.85 13.65 216.829 12.7457 220.183 15.7958C223.104 18.451 223.074 22.5394 223.043 23.4829C224.003 22.8477 226.162 21.6237 228.927 21.8052C233.148 22.0836 235.745 25.4399 236.881 26.9083C237.418 27.6032 240.259 31.2761 239.933 33.6714C238.35 45.3067 160.391 39.1158 149.237 38.23C141.411 37.6103 129.096 36.4689 127.961 31.4957Z" fill="#7E92A2"/>
<path d="M336.936 324.841C330.23 326.146 323.636 326.682 310.451 327.755C293.968 329.095 281.421 329.552 279.271 329.628C210.999 332.033 122.136 330.623 99.9014 330.253C99.9014 330.253 -6.37864 333.115 0.302279 307.45C3.19642 296.332 85.6088 295.171 125.798 296.338C163.268 297.427 200.89 294.666 238.374 295.492C275.461 296.309 363.072 291.581 371.802 309.244C374.303 314.303 352.406 321.829 336.936 324.841Z" fill="#7E92A2"/>
<path d="M261.947 307.798H89.4548C85.1594 307.798 81.5919 304.352 81.2789 299.9L63.3211 44.5482C62.9741 39.6111 66.7341 35.4072 71.4969 35.4072H243.989C248.284 35.4072 251.851 38.8533 252.165 43.3057L270.123 298.657C270.47 303.594 266.71 307.798 261.947 307.798Z" fill="#5E5E5E"/>
<path d="M273.354 307.798H100.862C96.5666 307.798 92.9991 304.352 92.6861 299.9L74.7293 44.5482C74.3823 39.6111 78.1423 35.4072 82.9051 35.4072H255.397C259.693 35.4072 263.26 38.8533 263.573 43.3057L281.531 298.657C281.877 303.594 278.117 307.798 273.354 307.798Z" fill="#7D7D7D"/>
<path d="M132.895 308.055H100.861C98.716 308.055 96.6702 307.22 95.1012 305.703C93.5342 304.189 92.5849 302.134 92.4284 299.917L84.2546 183.687C84.2443 183.545 84.3514 183.422 84.4935 183.412C84.6355 183.402 84.7581 183.509 84.7684 183.651L92.9421 299.881C93.2438 304.175 96.7228 307.54 100.861 307.54H132.895C133.037 307.54 133.152 307.655 133.152 307.798C133.152 307.94 133.037 308.055 132.895 308.055Z" fill="#07242B"/>
<path d="M269.376 126.123C269.242 126.123 269.129 126.019 269.12 125.883L263.314 43.3242C263.013 39.0295 259.534 35.665 255.396 35.665H171.402C171.26 35.665 171.145 35.5495 171.145 35.4072C171.145 35.2649 171.26 35.1494 171.402 35.1494H255.396C257.54 35.1494 259.586 35.9846 261.155 37.5014C262.722 39.0161 263.671 41.0712 263.828 43.2881L269.634 125.847C269.644 125.99 269.537 126.112 269.395 126.123C269.389 126.123 269.382 126.123 269.376 126.123Z" fill="#07242B"/>
<path d="M173.06 292.415H117.673C113.378 292.415 109.81 289.093 109.497 284.804L108.366 269.302C108.019 264.544 111.779 260.494 116.542 260.494H171.929C176.224 260.494 179.792 263.815 180.105 268.105L181.236 283.607C181.583 288.364 177.823 292.415 173.06 292.415Z" fill="white"/>
<path d="M225.286 230.889L229.211 284.669C229.524 288.96 233.091 292.28 237.386 292.28H252.821C257.584 292.28 261.344 288.229 260.997 283.472L257.072 229.692C256.759 225.401 253.192 222.081 248.896 222.081H233.461C228.699 222.081 224.939 226.132 225.286 230.889Z" fill="white"/>
<path d="M219.68 154.065L223.615 207.979C223.928 212.27 227.496 215.59 231.791 215.59H247.227C251.99 215.59 255.75 211.539 255.403 206.782L251.468 152.868C251.155 148.577 247.587 145.257 243.292 145.257H227.856C223.093 145.257 219.333 149.308 219.68 154.065Z" fill="white"/>
<path d="M124.698 177.177H109.263C104.968 177.177 101.4 173.856 101.087 169.567L99.9558 154.065C99.6089 149.308 103.369 145.257 108.132 145.257H123.566C127.861 145.257 131.429 148.578 131.742 152.868L132.873 168.37C133.22 173.127 129.46 177.177 124.698 177.177Z" fill="white"/>
<path d="M164.651 177.177H149.216C144.921 177.177 141.353 173.856 141.04 169.567L139.909 154.065C139.562 149.308 143.322 145.257 148.085 145.257H163.519C167.815 145.257 171.382 148.578 171.695 152.868L172.827 168.37C173.172 173.127 169.412 177.177 164.651 177.177Z" fill="white"/>
<path d="M204.602 177.177H189.167C184.872 177.177 181.305 173.856 180.992 169.567L179.86 154.065C179.513 149.308 183.273 145.257 188.036 145.257H203.47C207.766 145.257 211.333 148.578 211.646 152.868L212.778 168.37C213.125 173.127 209.365 177.177 204.602 177.177Z" fill="white"/>
<path d="M121.895 138.766H106.46C102.165 138.766 98.5976 135.445 98.2846 131.156L97.1531 115.654C96.8061 110.897 100.566 106.846 105.329 106.846H120.763C125.059 106.846 128.626 110.167 128.939 114.456L130.071 129.958C130.418 134.715 126.658 138.766 121.895 138.766Z" fill="white"/>
<path d="M161.848 138.766H146.414C142.118 138.766 138.551 135.445 138.238 131.156L137.106 115.654C136.759 110.897 140.519 106.846 145.282 106.846H160.716C165.012 106.846 168.579 110.167 168.892 114.456L170.024 129.958C170.371 134.715 166.611 138.766 161.848 138.766Z" fill="white"/>
<path d="M201.637 138.766H186.203C181.907 138.766 178.34 135.445 178.027 131.156L176.895 115.654C176.548 110.897 180.308 106.846 185.071 106.846H200.505C204.801 106.846 208.368 110.167 208.681 114.456L209.813 129.958C210.16 134.715 206.4 138.766 201.637 138.766Z" fill="white"/>
<path d="M241.619 138.766H226.183C221.888 138.766 218.321 135.445 218.007 131.156L216.876 115.654C216.529 110.897 220.289 106.846 225.052 106.846H240.486C244.781 106.846 248.349 110.167 248.662 114.456L249.793 129.958C250.141 134.715 246.381 138.766 241.619 138.766Z" fill="white"/>
<path d="M207.407 215.591H191.972C187.677 215.591 184.109 212.269 183.796 207.98L182.665 192.478C182.318 187.721 186.078 183.67 190.841 183.67H206.275C210.57 183.67 214.138 186.991 214.451 191.281L215.582 206.783C215.929 211.539 212.169 215.591 207.407 215.591Z" fill="white"/>
<path d="M167.453 215.591H152.019C147.724 215.591 144.156 212.269 143.843 207.98L142.712 192.478C142.365 187.721 146.125 183.67 150.888 183.67H166.322C170.617 183.67 174.185 186.991 174.498 191.281L175.629 206.783C175.976 211.539 172.216 215.591 167.453 215.591Z" fill="white"/>
<path d="M127.502 215.591H112.068C107.772 215.591 104.205 212.269 103.892 207.98L102.761 192.478C102.414 187.721 106.174 183.67 110.936 183.67H126.371C130.666 183.67 134.234 186.991 134.547 191.281L135.678 206.783C136.024 211.539 132.264 215.591 127.502 215.591Z" fill="white"/>
<path d="M130.305 254.003H114.871C110.575 254.003 107.008 250.681 106.695 246.392L105.563 230.89C105.216 226.132 108.976 222.082 113.739 222.082H129.173C133.469 222.082 137.036 225.403 137.349 229.693L138.481 245.195C138.828 249.951 135.068 254.003 130.305 254.003Z" fill="white"/>
<path d="M170.256 254.003H154.822C150.526 254.003 146.959 250.681 146.646 246.392L145.514 230.89C145.167 226.132 148.927 222.082 153.69 222.082H169.125C173.42 222.082 176.987 225.403 177.3 229.693L178.432 245.195C178.779 249.951 175.019 254.003 170.256 254.003Z" fill="white"/>
<path d="M210.209 254.003H194.775C190.48 254.003 186.912 250.681 186.599 246.392L185.468 230.89C185.121 226.132 188.881 222.082 193.643 222.082H209.078C213.373 222.082 216.941 225.403 217.254 229.693L218.385 245.195C218.732 249.951 214.972 254.003 210.209 254.003Z" fill="white"/>
<path d="M213.014 292.415H197.58C193.284 292.415 189.717 289.093 189.404 284.804L188.272 269.302C187.925 264.544 191.685 260.494 196.448 260.494H211.882C216.178 260.494 219.745 263.815 220.058 268.105L221.19 283.607C221.537 288.364 217.777 292.415 213.014 292.415Z" fill="white"/>
<path d="M238.529 94.6148H103.37C99.0745 94.6148 95.507 90.5759 95.194 85.3584L93.8679 63.2582C93.521 57.4726 97.281 52.5469 102.044 52.5469H237.203C241.499 52.5469 245.066 56.5858 245.379 61.8033L246.705 83.9034C247.051 89.6881 243.291 94.6148 238.529 94.6148Z" fill="white"/>
<path d="M125.288 244.449H122.846L122.174 235.23C121.342 236.066 120.336 236.684 119.154 237.084L118.992 234.864C119.614 234.655 120.278 234.259 120.982 233.676C121.688 233.093 122.151 232.413 122.372 231.635H124.354L125.288 244.449Z" fill="#121212"/>
<path d="M166.557 242.177L166.723 244.449H158.162C158.192 243.59 158.411 242.776 158.818 242.007C159.225 241.238 160.066 240.218 161.341 238.947C162.367 237.92 162.992 237.224 163.214 236.858C163.513 236.353 163.644 235.854 163.608 235.361C163.568 234.816 163.391 234.396 163.078 234.103C162.764 233.81 162.349 233.664 161.833 233.664C161.324 233.664 160.929 233.818 160.65 234.125C160.371 234.432 160.235 234.944 160.24 235.657L157.789 235.414C157.835 234.067 158.22 233.101 158.942 232.515C159.664 231.93 160.599 231.636 161.746 231.636C163.003 231.636 164.016 231.975 164.784 232.655C165.552 233.333 165.973 234.177 166.046 235.187C166.088 235.761 166.026 236.309 165.858 236.827C165.69 237.347 165.404 237.891 164.999 238.46C164.731 238.837 164.237 239.38 163.519 240.088C162.8 240.796 162.346 241.266 162.158 241.498C161.969 241.73 161.819 241.957 161.708 242.177H166.557Z" fill="#121212"/>
<path d="M197.907 240.954L200.25 240.666C200.37 241.269 200.607 241.731 200.96 242.05C201.313 242.37 201.725 242.528 202.194 242.528C202.699 242.528 203.108 242.337 203.426 241.954C203.743 241.572 203.878 241.055 203.83 240.404C203.785 239.79 203.584 239.302 203.228 238.942C202.872 238.582 202.456 238.403 201.98 238.403C201.667 238.403 201.297 238.464 200.872 238.585L200.996 236.592C201.658 236.61 202.151 236.466 202.476 236.161C202.802 235.857 202.946 235.452 202.909 234.947C202.878 234.518 202.724 234.175 202.452 233.92C202.178 233.664 201.83 233.537 201.407 233.537C200.99 233.537 200.644 233.682 200.37 233.972C200.096 234.263 199.947 234.686 199.924 235.244L197.645 234.861C197.744 234.09 197.936 233.473 198.218 233.011C198.5 232.55 198.914 232.187 199.46 231.923C200.005 231.659 200.628 231.527 201.329 231.527C202.529 231.527 203.518 231.91 204.299 232.676C204.941 233.303 205.291 234.011 205.349 234.8C205.43 235.92 204.884 236.814 203.711 237.481C204.452 237.638 205.062 237.989 205.539 238.534C206.017 239.079 206.284 239.738 206.339 240.51C206.421 241.629 206.082 242.584 205.323 243.373C204.563 244.162 203.576 244.557 202.359 244.557C201.206 244.557 200.226 244.225 199.418 243.56C198.611 242.897 198.107 242.027 197.907 240.954Z" fill="#121212"/>
<path d="M202.9 196.292L200.555 196.553C200.461 196.065 200.284 195.706 200.025 195.474C199.764 195.242 199.44 195.125 199.052 195.125C198.536 195.125 198.117 195.357 197.795 195.821C197.472 196.285 197.318 197.251 197.332 198.72C197.888 198 198.618 197.64 199.522 197.64C200.543 197.64 201.443 198.029 202.228 198.806C203.011 199.584 203.449 200.588 203.539 201.818C203.634 203.124 203.328 204.171 202.62 204.96C201.913 205.749 200.96 206.144 199.76 206.144C198.474 206.144 197.38 205.644 196.478 204.642C195.576 203.641 195.043 202.001 194.876 199.72C194.705 197.381 195.014 195.695 195.801 194.662C196.589 193.629 197.673 193.112 199.052 193.112C200.019 193.112 200.84 193.383 201.514 193.926C202.189 194.471 202.651 195.259 202.9 196.292ZM197.753 201.628C197.811 202.423 198.039 203.037 198.435 203.469C198.831 203.901 199.265 204.118 199.734 204.118C200.186 204.118 200.55 203.94 200.826 203.587C201.101 203.233 201.21 202.652 201.151 201.846C201.09 201.016 200.884 200.409 200.531 200.022C200.178 199.636 199.759 199.443 199.272 199.443C198.803 199.443 198.42 199.628 198.122 199.996C197.823 200.364 197.701 200.909 197.753 201.628Z" fill="#121212"/>
<path d="M155.098 202.534L157.513 202.281C157.623 202.833 157.86 203.269 158.226 203.591C158.591 203.913 158.997 204.074 159.442 204.074C159.952 204.074 160.369 203.867 160.692 203.451C161.016 203.037 161.146 202.411 161.086 201.576C161.028 200.792 160.81 200.204 160.431 199.812C160.052 199.421 159.581 199.225 159.019 199.225C158.318 199.225 157.712 199.535 157.201 200.156L155.199 199.868L155.966 193.227H162.423L162.59 195.516H157.984L157.759 197.683C158.284 197.41 158.83 197.274 159.398 197.274C160.481 197.274 161.429 197.669 162.24 198.457C163.051 199.246 163.502 200.271 163.594 201.53C163.67 202.581 163.434 203.518 162.886 204.342C162.14 205.468 161.031 206.031 159.559 206.031C158.382 206.031 157.401 205.715 156.613 205.082C155.826 204.451 155.321 203.601 155.098 202.534Z" fill="#121212"/>
<path d="M120.32 206.036L120.133 203.469H114.918L114.762 201.327L119.699 193.224H121.749L122.34 201.319H123.922L124.078 203.469H122.497L122.684 206.036H120.32ZM119.975 201.319L119.657 196.958L117.046 201.319H119.975Z" fill="#121212"/>
<path d="M111.945 157.196L111.779 154.925H120.131L120.261 156.7C119.621 157.379 118.991 158.354 118.371 159.625C117.751 160.895 117.306 162.246 117.036 163.677C116.767 165.107 116.676 166.386 116.764 167.512H114.409C114.32 165.748 114.553 163.949 115.106 162.115C115.659 160.282 116.456 158.642 117.498 157.197H111.945V157.196Z" fill="#121212"/>
<path d="M116.79 124.494L119.342 125.286C119.061 126.679 118.501 127.713 117.661 128.389C116.821 129.065 115.717 129.402 114.35 129.402C112.658 129.402 111.225 128.824 110.051 127.666C108.877 126.508 108.217 124.925 108.07 122.918C107.915 120.793 108.342 119.145 109.352 117.969C110.361 116.794 111.758 116.207 113.542 116.207C115.101 116.207 116.4 116.668 117.441 117.591C118.06 118.136 118.552 118.92 118.917 119.941L116.415 120.55C116.216 119.888 115.863 119.366 115.357 118.983C114.852 118.6 114.257 118.408 113.573 118.408C112.629 118.408 111.887 118.748 111.348 119.427C110.81 120.106 110.596 121.206 110.707 122.726C110.824 124.34 111.198 125.488 111.827 126.173C112.456 126.858 113.235 127.2 114.162 127.2C114.846 127.2 115.418 126.982 115.878 126.547C116.34 126.113 116.643 125.428 116.79 124.494Z" fill="#121212"/>
<path d="M154.265 160.626C153.614 160.359 153.128 159.992 152.807 159.525C152.486 159.058 152.305 158.545 152.264 157.989C152.195 157.037 152.469 156.251 153.087 155.629C153.705 155.009 154.625 154.698 155.848 154.698C157.059 154.698 158.022 155.009 158.736 155.629C159.451 156.25 159.843 157.037 159.912 157.989C159.955 158.58 159.84 159.107 159.567 159.568C159.293 160.029 158.888 160.382 158.349 160.626C159.077 160.911 159.644 161.325 160.052 161.871C160.46 162.416 160.689 163.046 160.742 163.76C160.828 164.938 160.523 165.895 159.826 166.633C159.128 167.37 158.158 167.738 156.912 167.738C155.753 167.738 154.766 167.434 153.951 166.824C152.988 166.105 152.462 165.118 152.37 163.865C152.32 163.174 152.444 162.541 152.744 161.963C153.045 161.385 153.551 160.94 154.265 160.626ZM154.762 163.629C154.811 164.302 155.022 164.827 155.394 165.204C155.766 165.582 156.211 165.77 156.726 165.77C157.231 165.77 157.635 165.589 157.938 165.227C158.242 164.864 158.369 164.34 158.319 163.656C158.276 163.058 158.072 162.578 157.71 162.215C157.347 161.852 156.908 161.671 156.392 161.671C155.795 161.671 155.365 161.877 155.103 162.288C154.84 162.701 154.727 163.147 154.762 163.629ZM154.589 158.163C154.625 158.651 154.79 159.03 155.085 159.303C155.381 159.576 155.757 159.713 156.215 159.713C156.678 159.713 157.039 159.574 157.297 159.299C157.555 159.024 157.666 158.642 157.63 158.155C157.598 157.697 157.433 157.329 157.137 157.053C156.842 156.778 156.468 156.64 156.016 156.64C155.547 156.64 155.183 156.779 154.926 157.057C154.667 157.336 154.555 157.704 154.589 158.163Z" fill="#121212"/>
<path d="M192.31 125.847L190.923 124.829C191.306 124.358 191.707 123.909 192.128 123.48C192.295 123.306 192.4 123.195 192.443 123.149C192.297 123.126 191.875 123.03 191.179 122.861C190.678 122.74 190.346 122.65 190.186 122.591L190.586 121.059C191.368 121.366 192.07 121.706 192.695 122.078C192.487 121.132 192.361 120.36 192.317 119.763H193.864C193.895 120.186 193.873 120.964 193.799 122.095C193.912 122.049 194.153 121.935 194.522 121.756C195.027 121.518 195.492 121.315 195.92 121.146L196.496 122.722C195.864 122.867 195.129 123.01 194.294 123.149L195.422 124.324C195.647 124.563 195.828 124.756 195.96 124.908L194.695 125.788L193.38 123.847C193.072 124.473 192.715 125.14 192.31 125.847Z" fill="#121212"/>
<path d="M231.026 124.029L230.848 121.583H235.645L235.824 124.029H231.026Z" fill="#121212"/>
<path d="M236.751 184.884L236.509 181.568H233.171L233.004 179.279H236.342L236.1 175.963H238.325L238.567 179.279H241.913L242.08 181.568H238.733L238.975 184.884H236.751Z" fill="#121212"/>
<path d="M238.629 256.372L238.465 254.126H247.374L247.537 256.372H238.629ZM238.911 260.237L238.746 257.983H247.655L247.82 260.237H238.911Z" fill="#121212"/>
<path d="M203.598 277.677L203.42 275.231H205.862L206.04 277.677H203.598Z" fill="#121212"/>
<path d="M123.52 269.939C124.755 269.939 125.751 270.381 126.511 271.262C127.416 272.307 127.957 274.039 128.133 276.459C128.309 278.873 128.018 280.609 127.261 281.664C126.635 282.535 125.705 282.97 124.471 282.97C123.231 282.97 122.196 282.492 121.367 281.538C120.539 280.583 120.035 278.881 119.856 276.432C119.681 274.03 119.971 272.301 120.729 271.245C121.356 270.375 122.286 269.939 123.52 269.939ZM123.669 271.968C123.373 271.968 123.117 272.063 122.898 272.25C122.68 272.439 122.526 272.777 122.433 273.264C122.312 273.896 122.305 274.961 122.414 276.458C122.524 277.955 122.674 278.985 122.865 279.544C123.057 280.104 123.274 280.478 123.516 280.663C123.758 280.849 124.028 280.942 124.323 280.942C124.619 280.942 124.875 280.848 125.093 280.659C125.312 280.47 125.466 280.132 125.558 279.644C125.68 279.018 125.686 277.955 125.577 276.458C125.468 274.961 125.318 273.933 125.126 273.372C124.935 272.812 124.718 272.438 124.475 272.249C124.233 272.062 123.964 271.968 123.669 271.968Z" fill="#121212"/>
<path d="M151.551 129.403L153.743 116.208H155.576L153.349 129.403H151.551Z" fill="#121212"/>
<path d="M192.558 164.631L194.903 164.37C194.996 164.852 195.173 165.209 195.433 165.441C195.694 165.673 196.023 165.789 196.424 165.789C196.928 165.789 197.34 165.557 197.659 165.093C197.979 164.629 198.135 163.666 198.127 162.203C197.565 162.916 196.823 163.273 195.902 163.273C194.899 163.273 194.006 162.886 193.223 162.111C192.439 161.337 192.002 160.328 191.911 159.087C191.817 157.793 192.124 156.749 192.835 155.957C193.544 155.165 194.493 154.77 195.682 154.77C196.974 154.77 198.07 155.27 198.972 156.271C199.874 157.272 200.408 158.919 200.575 161.211C200.745 163.543 200.436 165.226 199.649 166.259C198.861 167.293 197.774 167.809 196.389 167.809C195.392 167.809 194.568 167.543 193.915 167.013C193.261 166.48 192.809 165.687 192.558 164.631ZM197.695 159.286C197.638 158.497 197.412 157.885 197.018 157.449C196.624 157.014 196.189 156.797 195.715 156.797C195.263 156.797 194.9 156.975 194.628 157.332C194.355 157.689 194.249 158.273 194.309 159.086C194.369 159.91 194.576 160.515 194.928 160.901C195.28 161.286 195.7 161.48 196.187 161.48C196.657 161.48 197.039 161.295 197.333 160.923C197.627 160.551 197.748 160.006 197.695 159.286Z" fill="#121212"/>
<path d="M277.643 11.0557C280.691 11.0557 283.162 8.58083 283.162 5.52787C283.162 2.47491 280.691 0 277.643 0C274.594 0 272.123 2.47491 272.123 5.52787C272.123 8.58083 274.594 11.0557 277.643 11.0557Z" fill="url(#paint0_linear_809_12291)"/>
<path d="M76.242 24.6381C79.9483 24.6381 82.9528 21.629 82.9528 17.9172C82.9528 14.2053 79.9483 11.1963 76.242 11.1963C72.5358 11.1963 69.5312 14.2053 69.5312 17.9172C69.5312 21.629 72.5358 24.6381 76.242 24.6381Z" fill="url(#paint1_linear_809_12291)"/>
<path d="M362.595 169.299C365.011 169.299 366.97 167.337 366.97 164.917C366.97 162.498 365.011 160.536 362.595 160.536C360.179 160.536 358.221 162.498 358.221 164.917C358.221 167.337 360.179 169.299 362.595 169.299Z" fill="url(#paint2_linear_809_12291)"/>
<path d="M9.40396 189.344C11.82 189.344 13.7786 187.382 13.7786 184.962C13.7786 182.543 11.82 180.581 9.40396 180.581C6.9879 180.581 5.0293 182.543 5.0293 184.962C5.0293 187.382 6.9879 189.344 9.40396 189.344Z" fill="url(#paint3_linear_809_12291)"/>
<path d="M262.665 254.681C260.836 269.078 259.95 299.011 259.021 301.752C258.802 302.4 258.363 306.521 254.232 308.266L269.272 303.847L269.191 302.6C271.754 290.292 276.907 248.723 276.907 248.723C276.907 248.723 265.005 236.259 262.665 254.681Z" fill="#F39779"/>
<path d="M267.613 307.316C267.616 307.313 267.618 307.311 267.621 307.309C267.617 307.317 267.614 307.319 267.613 307.316Z" fill="#F39779"/>
<path d="M269.306 312.138C269.949 310.271 269.953 308.273 269.808 306.319C269.675 304.529 269.79 302.586 269.191 302.6C263.997 305.68 259.306 303.335 259.021 301.752C258.328 301.729 253.754 306.975 251.93 307.43C245.173 309.227 244.675 310.754 244.641 312.065C244.629 312.509 269.235 312.342 269.306 312.138Z" fill="#302626"/>
<path d="M252.14 313.767C255.002 313.758 257.894 313.458 260.719 312.987C263.142 312.583 265.72 312.781 268.178 312.84C268.435 312.842 268.712 312.839 268.923 312.713C268.937 312.705 268.95 312.697 268.963 312.687C269.15 312.556 269.236 312.343 269.306 312.139C269.648 311.146 269.806 310.115 269.86 309.073C269.326 309.107 268.793 309.167 268.266 309.263C267.591 309.387 266.926 309.56 266.259 309.72C259.923 311.241 253.345 311.554 246.839 311.223C246.18 311.19 245.51 311.144 244.876 310.977C244.693 311.356 244.65 311.719 244.641 312.067C244.63 312.51 244.932 312.905 245.386 313.073C247.472 313.846 249.949 313.774 252.14 313.767Z" fill="#61474D"/>
<path d="M304.945 250.085C304.146 266.735 303.06 283.013 302.728 297.871C302.823 300.016 303.074 302.462 303.68 304.09C303.918 304.73 304.289 306.997 308.602 308.221L293.135 305.686L293.073 303.828C292.366 293.091 288.961 250.809 288.961 250.809C288.961 250.809 305.721 233.903 304.945 250.085Z" fill="#F39779"/>
<path d="M294.743 308.529C294.741 308.526 294.739 308.524 294.736 308.521C294.739 308.53 294.741 308.531 294.743 308.529Z" fill="#F39779"/>
<path d="M293.037 313.346C292.398 311.479 292.399 309.479 292.549 307.526C292.685 305.736 292.575 303.794 293.175 303.809C298.362 306.902 303.057 304.568 303.347 302.986C304.04 302.965 308.601 308.221 310.423 308.682C317.176 310.495 317.67 312.023 317.701 313.335C317.712 313.778 293.107 313.55 293.037 313.346Z" fill="#302626"/>
<path d="M310.199 315.016C307.338 315 304.447 314.694 301.623 314.215C299.2 313.806 296.621 313.997 294.164 314.049C293.907 314.051 293.63 314.047 293.419 313.92C293.406 313.912 293.392 313.904 293.38 313.894C293.193 313.764 293.107 313.549 293.037 313.345C292.697 312.351 292.542 311.32 292.49 310.278C293.025 310.313 293.558 310.374 294.084 310.472C294.758 310.597 295.422 310.772 296.09 310.934C302.422 312.47 308.998 312.8 315.506 312.485C316.165 312.453 316.837 312.409 317.471 312.244C317.652 312.623 317.694 312.986 317.702 313.334C317.713 313.777 317.409 314.172 316.955 314.339C314.867 315.107 312.39 315.029 310.199 315.016Z" fill="#61474D"/>
<path d="M304.809 190.53C304.809 190.53 309.039 260.573 305.771 299.847C300.641 302.206 293.768 300.909 291.005 300.603C288.874 290.692 285.392 221.854 285.392 221.854C285.392 221.854 279.775 274.428 271.73 299.657C267.231 300.994 262.093 301.09 258.371 298.797C258.371 290.578 262.336 207.692 266.794 190.925C269.618 190.551 304.809 190.53 304.809 190.53Z" fill="#333333"/>
<path d="M285.394 222.113C285.383 222.113 285.372 222.112 285.36 222.111C285.219 222.092 285.12 221.962 285.139 221.822L287.414 204.5C287.423 204.433 287.458 204.372 287.51 204.331L291.205 201.421C291.317 201.334 291.479 201.352 291.567 201.465C291.654 201.576 291.636 201.739 291.523 201.827L287.911 204.671L285.65 221.889C285.632 222.018 285.521 222.113 285.394 222.113Z" fill="#07242B"/>
<path d="M260.931 299.823C260.928 299.823 260.925 299.823 260.922 299.823C260.78 299.818 260.669 299.699 260.674 299.557C261.89 264.034 264.261 236.616 266.035 219.872C267.957 201.725 269.615 191.851 269.631 191.753C269.655 191.613 269.788 191.518 269.928 191.542C270.068 191.565 270.163 191.698 270.139 191.839C270.122 191.937 268.468 201.799 266.547 219.933C264.774 236.668 262.405 264.07 261.189 299.575C261.184 299.713 261.069 299.823 260.931 299.823Z" fill="#07242B"/>
<path d="M268.457 201.881C268.347 201.881 268.246 201.809 268.211 201.699C268.169 201.563 268.245 201.419 268.381 201.376C271.483 200.41 273.561 198.509 274.554 195.726C275.296 193.647 275.124 191.839 275.122 191.822C275.108 191.681 275.211 191.554 275.352 191.539C275.495 191.525 275.62 191.628 275.634 191.769C275.642 191.848 275.819 193.712 275.038 195.899C274.315 197.923 272.599 200.602 268.532 201.868C268.507 201.876 268.482 201.881 268.457 201.881Z" fill="#07242B"/>
<path d="M305.096 199.225C305.093 199.225 305.09 199.225 305.087 199.225C303.082 199.15 301.531 197.831 300.601 195.408C299.914 193.62 299.807 191.883 299.803 191.81C299.795 191.667 299.903 191.546 300.045 191.538C300.188 191.529 300.309 191.638 300.317 191.78C300.321 191.848 300.763 198.547 305.107 198.709C305.249 198.714 305.36 198.834 305.355 198.976C305.348 199.116 305.234 199.225 305.096 199.225Z" fill="#07242B"/>
<path d="M313.1 160.213L319.104 165.941L317.87 177.906C317.87 177.906 308.505 177.646 299.753 163.795C299.592 163.427 313.1 160.213 313.1 160.213Z" fill="#F39779"/>
<path d="M306.42 141.514C306.42 141.514 311.942 146.684 317.625 164.64C317.625 166.009 315.294 170.535 307.163 173.915C306.053 172.526 283.716 156.246 306.42 141.514Z" fill="#4A6C61"/>
<path d="M260.261 162.101C260.261 162.101 253.39 169.505 247.453 173.838C247.842 173.546 238.375 166.761 238.375 166.761C238.375 166.761 240.478 161.833 252.443 148.958C252.744 148.782 260.261 162.101 260.261 162.101Z" fill="#F39779"/>
<path d="M266.482 138.482C266.482 138.482 259.542 139.793 242.567 158.36C241.849 159.526 248.2 167.834 256.051 172.88C261.744 169.714 278.522 160.604 266.482 138.482Z" fill="#4A6C61"/>
<path d="M317.341 142.207C317.279 142.481 317.051 142.42 316.985 142.748C315.828 151.387 309.741 172.602 314.281 176.076C316.584 177.84 318.582 178.971 321.205 176.489C327.634 170.406 324.706 146.653 324.696 143.359C323.801 142.627 317.616 142.276 317.341 142.207Z" fill="#F39779"/>
<path d="M312.929 170.752C312.791 170.752 312.677 170.643 312.672 170.503C312.669 170.411 312.383 161.299 314.243 155.771C314.288 155.636 314.434 155.564 314.569 155.609C314.704 155.655 314.776 155.801 314.731 155.936C312.902 161.375 313.183 170.396 313.187 170.485C313.192 170.628 313.08 170.747 312.938 170.751C312.934 170.752 312.932 170.752 312.929 170.752Z" fill="#07242B"/>
<path d="M290.82 116.837C290.82 116.837 292.551 113.743 294.504 115.285C295.044 115.711 295.393 116.342 295.489 117.023C295.694 118.468 295.314 120.903 291.731 121.479C291.785 121.634 290.82 116.837 290.82 116.837Z" fill="#DB7A5C"/>
<path d="M278.566 132.821L277.919 117.962L287.992 122.057L288.438 133.212C288.468 133.973 288.922 134.653 289.612 134.97L294.534 137.24C294.534 137.24 286.184 148.113 271.916 136.751C273.646 136.163 275.861 135.335 277.263 134.803C278.08 134.493 278.604 133.695 278.566 132.821Z" fill="#F39779"/>
<path d="M278.221 124.896L278.01 120.035C278.582 119.606 279.335 119.45 279.635 118.66L287.993 122.057L288.314 130.093C285.557 130.055 280.4 128.736 278.221 124.896Z" fill="#DB7A5C"/>
<path d="M277.157 115.514C276.949 122.089 280.492 127.138 285.003 127.68C291.785 128.496 293.391 122.61 293.599 116.034C293.807 109.459 290.295 104.013 285.754 103.868C281.214 103.724 277.364 108.938 277.157 115.514Z" fill="#F39779"/>
<path d="M283.743 116.52C283.758 116.963 283.584 117.328 283.356 117.335C283.129 117.342 282.932 116.99 282.919 116.546C282.904 116.104 283.078 115.739 283.306 115.732C283.533 115.724 283.729 116.078 283.743 116.52Z" fill="#302626"/>
<path d="M291.433 116.764C291.447 117.206 291.273 117.571 291.046 117.578C290.818 117.585 290.622 117.233 290.608 116.789C290.595 116.346 290.768 115.982 290.995 115.975C291.223 115.968 291.418 116.321 291.433 116.764Z" fill="#302626"/>
<path d="M293.588 114.69C293.268 113.072 292.422 107.36 287.223 107.318C284.133 107.295 282.358 108.069 281.456 108.5C280.854 108.788 280.333 104.466 280.047 103.352C282.604 101.027 288.034 100.656 291.281 102.749C295.598 105.535 294.902 112.519 293.588 114.69Z" fill="#302626"/>
<path d="M277.023 116.871C279.986 115.569 278.026 110.133 281.458 108.5C281.381 107.527 281.271 105.585 280.891 104.686C280.993 104.142 280.598 103.293 280.049 103.353C270.621 104.368 273.896 113.442 274.737 114.732C275.355 115.679 275.87 117.388 277.023 116.871Z" fill="#302626"/>
<path d="M278.401 116.035C278.401 116.035 275.46 113.384 274.018 115.414C273.619 115.974 273.462 116.678 273.559 117.359C273.767 118.802 274.814 121.034 278.415 120.58C278.407 120.742 278.401 116.035 278.401 116.035Z" fill="#F39779"/>
<path d="M277.431 119.061C277.461 119.059 277.491 119.052 277.519 119.039C277.633 118.983 277.68 118.846 277.626 118.731C276.65 116.715 274.739 116.411 274.658 116.399C274.532 116.38 274.416 116.467 274.397 116.593C274.378 116.719 274.465 116.835 274.591 116.854C274.662 116.865 276.345 117.14 277.212 118.931C277.254 119.017 277.342 119.065 277.431 119.061Z" fill="#302626"/>
<path d="M277.419 119.096C277.318 119.096 277.225 119.038 277.181 118.946C276.322 117.172 274.655 116.898 274.584 116.887C274.441 116.865 274.341 116.731 274.362 116.587C274.383 116.443 274.518 116.343 274.662 116.364C274.743 116.377 276.671 116.682 277.656 118.715C277.72 118.846 277.664 119.005 277.533 119.068C277.501 119.083 277.467 119.093 277.432 119.094C277.429 119.096 277.424 119.096 277.419 119.096ZM274.625 116.43C274.529 116.43 274.445 116.5 274.431 116.598C274.416 116.706 274.49 116.805 274.596 116.821C274.668 116.832 276.369 117.111 277.243 118.917C277.278 118.988 277.352 119.033 277.43 119.028C277.456 119.027 277.482 119.019 277.505 119.008C277.602 118.961 277.643 118.843 277.596 118.746C276.627 116.744 274.734 116.445 274.653 116.432C274.643 116.431 274.634 116.43 274.625 116.43Z" fill="#302626"/>
<path d="M275.508 118.477C275.56 118.473 275.61 118.454 275.651 118.417L276.449 117.687C276.543 117.601 276.549 117.456 276.463 117.361C276.378 117.267 276.233 117.261 276.138 117.346L275.34 118.076C275.247 118.162 275.24 118.307 275.326 118.402C275.374 118.455 275.441 118.48 275.508 118.477Z" fill="#302626"/>
<path d="M275.494 118.51C275.42 118.51 275.35 118.479 275.3 118.425C275.252 118.372 275.228 118.305 275.231 118.235C275.234 118.165 275.265 118.1 275.316 118.051L276.114 117.321C276.167 117.274 276.234 117.249 276.304 117.252C276.374 117.255 276.438 117.286 276.487 117.338C276.534 117.39 276.559 117.457 276.556 117.528C276.553 117.598 276.522 117.663 276.47 117.711L275.672 118.441C275.627 118.482 275.569 118.507 275.509 118.51C275.505 118.51 275.499 118.51 275.494 118.51ZM276.292 117.32C276.243 117.32 276.196 117.339 276.16 117.372L275.363 118.102C275.323 118.137 275.302 118.185 275.299 118.238C275.297 118.291 275.314 118.34 275.35 118.379C275.39 118.423 275.447 118.446 275.506 118.443C275.551 118.441 275.593 118.424 275.627 118.392L276.425 117.662C276.464 117.627 276.486 117.578 276.489 117.525C276.491 117.473 276.473 117.423 276.437 117.384C276.402 117.345 276.354 117.323 276.301 117.32C276.298 117.32 276.295 117.32 276.292 117.32Z" fill="#302626"/>
<path d="M284.723 114.639C284.787 114.636 284.85 114.605 284.892 114.549C284.97 114.449 284.952 114.305 284.852 114.227C284.805 114.19 283.659 113.322 281.835 114.109C281.718 114.159 281.664 114.294 281.714 114.411C281.765 114.528 281.899 114.582 282.016 114.532C283.58 113.857 284.53 114.561 284.57 114.591C284.615 114.627 284.67 114.642 284.723 114.639Z" fill="#302626"/>
<path d="M284.71 114.674C284.652 114.674 284.596 114.655 284.549 114.62C284.51 114.59 283.572 113.899 282.029 114.564C281.964 114.592 281.892 114.593 281.827 114.567C281.761 114.542 281.71 114.491 281.682 114.426C281.654 114.361 281.653 114.289 281.679 114.224C281.704 114.158 281.755 114.106 281.82 114.079C283.663 113.284 284.823 114.163 284.871 114.201C284.986 114.29 285.006 114.456 284.918 114.57C284.87 114.631 284.799 114.668 284.723 114.673C284.719 114.674 284.715 114.674 284.71 114.674ZM283.323 114.207C284.107 114.207 284.563 114.544 284.59 114.564C284.627 114.592 284.674 114.607 284.72 114.604C284.778 114.601 284.83 114.574 284.865 114.528C284.931 114.443 284.916 114.32 284.831 114.254C284.784 114.217 283.654 113.361 281.848 114.14C281.799 114.161 281.762 114.199 281.743 114.248C281.723 114.296 281.724 114.35 281.745 114.398C281.765 114.447 281.803 114.484 281.852 114.502C281.9 114.522 281.954 114.521 282.002 114.5C282.509 114.283 282.952 114.207 283.323 114.207Z" fill="#302626"/>
<path d="M292.056 114.849C292.136 114.845 292.211 114.798 292.249 114.722C292.306 114.609 292.26 114.47 292.146 114.413C292.085 114.382 290.611 113.658 289.464 114.172C289.348 114.224 289.297 114.36 289.348 114.477C289.4 114.593 289.535 114.645 289.652 114.593C290.602 114.167 291.928 114.819 291.941 114.825C291.978 114.844 292.017 114.851 292.056 114.849Z" fill="#302626"/>
<path d="M292.043 114.883C292.002 114.883 291.962 114.874 291.925 114.855C291.912 114.849 290.604 114.202 289.665 114.623C289.601 114.652 289.529 114.654 289.463 114.629C289.397 114.604 289.345 114.555 289.316 114.49C289.287 114.426 289.285 114.354 289.311 114.288C289.337 114.222 289.385 114.169 289.45 114.14C290.61 113.621 292.098 114.35 292.161 114.382C292.291 114.447 292.344 114.605 292.279 114.736C292.237 114.821 292.152 114.878 292.057 114.883C292.053 114.883 292.049 114.883 292.043 114.883ZM290.4 114.414C291.189 114.414 291.947 114.79 291.957 114.795C291.987 114.811 292.022 114.817 292.055 114.816C292.125 114.812 292.189 114.77 292.219 114.708C292.243 114.66 292.246 114.608 292.23 114.558C292.213 114.509 292.178 114.468 292.131 114.445C292.069 114.414 290.609 113.698 289.478 114.204C289.43 114.226 289.393 114.264 289.375 114.314C289.356 114.362 289.357 114.416 289.379 114.464C289.401 114.512 289.439 114.549 289.488 114.567C289.537 114.586 289.59 114.585 289.638 114.563C289.878 114.454 290.141 114.414 290.4 114.414Z" fill="#302626"/>
<path d="M287.687 120.818C288.051 120.798 288.34 120.697 288.552 120.516C288.928 120.192 288.909 119.735 288.904 119.661C288.778 117.035 288.462 115.307 288.459 115.29C288.436 115.165 288.316 115.083 288.192 115.105C288.067 115.129 287.985 115.249 288.007 115.373C288.01 115.39 288.321 117.091 288.445 119.686C288.445 119.69 288.446 119.695 288.446 119.699C288.447 119.708 288.468 119.983 288.248 120.168C288.05 120.335 287.601 120.48 286.592 120.212C286.469 120.179 286.344 120.254 286.311 120.376C286.278 120.499 286.352 120.625 286.474 120.658C286.942 120.783 287.347 120.835 287.687 120.818Z" fill="#302626"/>
<path d="M287.554 120.854C287.24 120.854 286.874 120.8 286.464 120.692C286.396 120.674 286.338 120.63 286.303 120.569C286.268 120.508 286.258 120.437 286.277 120.369C286.295 120.301 286.338 120.243 286.399 120.208C286.46 120.173 286.531 120.163 286.599 120.181C287.594 120.444 288.032 120.306 288.225 120.144C288.432 119.97 288.412 119.714 288.411 119.704C288.411 119.7 288.41 119.693 288.41 119.688C288.287 117.108 287.975 115.398 287.972 115.38C287.959 115.311 287.974 115.241 288.015 115.182C288.055 115.125 288.114 115.085 288.183 115.072C288.327 115.045 288.465 115.14 288.491 115.283C288.505 115.355 288.813 117.069 288.937 119.658C288.944 119.746 288.959 120.208 288.574 120.541C288.357 120.728 288.06 120.832 287.689 120.851C287.645 120.853 287.601 120.854 287.554 120.854ZM286.531 120.239C286.497 120.239 286.463 120.248 286.433 120.266C286.388 120.293 286.356 120.335 286.343 120.385C286.329 120.436 286.336 120.488 286.362 120.534C286.388 120.579 286.431 120.611 286.482 120.625C286.945 120.747 287.349 120.8 287.685 120.782C288.04 120.764 288.324 120.665 288.529 120.488C288.89 120.178 288.876 119.746 288.869 119.662C288.746 117.076 288.438 115.367 288.424 115.296C288.405 115.189 288.302 115.119 288.196 115.139C288.144 115.148 288.1 115.177 288.07 115.22C288.04 115.264 288.029 115.315 288.039 115.367C288.042 115.384 288.354 117.1 288.478 119.684L288.479 119.695C288.48 119.709 288.503 119.999 288.269 120.195C288.064 120.367 287.606 120.516 286.581 120.245C286.565 120.242 286.548 120.239 286.531 120.239Z" fill="#302626"/>
<path d="M287.377 123.753C287.693 123.737 288.034 123.681 288.399 123.574C288.521 123.539 288.592 123.411 288.556 123.288C288.521 123.167 288.393 123.096 288.271 123.132C285.942 123.81 284.786 122.194 284.774 122.179C284.702 122.075 284.558 122.049 284.454 122.121C284.35 122.193 284.324 122.338 284.396 122.442C284.409 122.458 285.41 123.858 287.377 123.753Z" fill="#302626"/>
<path d="M287.167 123.794C285.318 123.794 284.379 122.476 284.37 122.462C284.33 122.405 284.314 122.335 284.326 122.264C284.339 122.195 284.378 122.135 284.436 122.094C284.493 122.054 284.563 122.039 284.633 122.051C284.702 122.063 284.763 122.103 284.803 122.16C284.814 122.177 285.967 123.769 288.262 123.101C288.403 123.061 288.549 123.141 288.59 123.281C288.609 123.349 288.602 123.42 288.568 123.482C288.534 123.544 288.479 123.589 288.411 123.609C288.061 123.711 287.715 123.772 287.381 123.79C287.307 123.792 287.236 123.794 287.167 123.794ZM284.586 122.114C284.546 122.114 284.508 122.126 284.475 122.149C284.431 122.179 284.403 122.224 284.393 122.276C284.384 122.327 284.395 122.38 284.425 122.422C284.436 122.437 285.425 123.823 287.375 123.719C287.703 123.702 288.045 123.642 288.39 123.542C288.441 123.528 288.482 123.494 288.508 123.448C288.533 123.402 288.538 123.349 288.524 123.299C288.494 123.195 288.385 123.136 288.281 123.165C285.939 123.847 284.759 122.215 284.747 122.198C284.718 122.155 284.672 122.126 284.621 122.117C284.609 122.115 284.597 122.114 284.586 122.114Z" fill="#302626"/>
<path d="M277.037 135.014C277.037 135.014 284.134 142.067 291.351 135.69C291.49 135.733 302.37 137.991 306.421 141.514C306.085 142.951 302.052 175.743 305.098 192.313C302.15 193.877 286.456 201.928 265.41 194.296C266.139 176.139 265.421 152.995 260.262 141.899C261.402 141.093 267.549 136.228 277.037 135.014Z" fill="#4A6C61"/>
<path d="M285.304 138.505C284.179 138.505 283.003 138.303 281.784 137.895C278.968 136.955 276.956 135.282 276.872 135.211C276.762 135.119 276.748 134.958 276.84 134.848C276.93 134.739 277.093 134.725 277.202 134.816C277.222 134.833 279.233 136.503 281.96 137.411C285.574 138.614 288.67 137.975 291.167 135.513C291.268 135.413 291.432 135.414 291.531 135.516C291.631 135.617 291.629 135.781 291.528 135.881C289.763 137.622 287.65 138.505 285.304 138.505Z" fill="#07242B"/>
<path d="M264.399 164.897C264.266 164.897 264.153 164.795 264.143 164.66C263.679 158.771 262.945 154.74 261.961 152.677C261.899 152.549 261.954 152.395 262.082 152.334C262.211 152.272 262.365 152.327 262.425 152.456C263.437 154.576 264.188 158.668 264.656 164.621C264.668 164.763 264.562 164.887 264.42 164.898C264.412 164.897 264.405 164.897 264.399 164.897Z" fill="#07242B"/>
<path d="M324.697 143.359C326.095 141.355 327.057 137.715 327.333 135.777C327.054 135.477 326.751 135.336 326.377 135.1C323.955 133.573 319.825 133.294 317.739 132.956C317.194 135.905 316.766 141.298 316.766 141.298C316.766 141.298 316.87 142.209 317.155 143.652C319.749 142.74 322.012 143.961 324.697 143.359Z" fill="#F39779"/>
<path d="M327.571 132.091C327.544 131.715 325.238 132.939 325.262 132.561C325.285 132.222 325.309 131.954 325.326 131.955C324.603 132.205 324.003 132.134 323.459 131.736C322.044 130.704 321.44 131.36 320.936 131.549C320.807 131.596 320.751 131.747 320.638 131.667C320.637 131.666 320.636 131.665 320.635 131.665C320.573 131.622 320.385 131.95 320.381 131.875C320.098 126.596 320.299 123.281 319.164 123.37C317.788 123.432 317.643 133.589 317.643 133.589L327.056 137.261C327.057 137.261 327.752 134.613 327.571 132.091Z" fill="#F39779"/>
<path d="M314.78 129.083C314.824 129.856 314.957 132.335 314.947 134.417C314.943 135.184 314.979 135.949 315.052 136.713C315.243 138.718 315.732 142.817 317.941 143.221C318.096 143.25 321.606 141.552 320.482 137.367C320.233 136.44 319.688 135.628 318.981 134.981C318.464 134.51 317.749 133.598 317.073 131.843C317.004 131.152 316.223 128.348 315.131 128.635C314.909 128.692 314.769 128.884 314.78 129.083Z" fill="#F39779"/>
<path d="M323.138 130.751C322.954 131.888 322.538 132.97 322.204 133.782C322.125 133.99 321.771 135.211 321.191 135.077C320.66 134.951 320.327 134.09 320.922 130.577C320.994 130.15 321.254 129.762 321.645 129.578C322.632 129.116 323.238 130.132 323.138 130.751Z" fill="#F39779"/>
<path d="M321.626 135.233C321.593 135.233 321.56 135.231 321.528 135.226C321.521 135.225 321.514 135.224 321.508 135.222C320.732 135.037 320.018 134.375 320.613 130.863C320.637 130.723 320.77 130.628 320.91 130.652C321.05 130.676 321.145 130.809 321.121 130.949C320.535 134.411 321.305 134.643 321.615 134.717C321.671 134.722 321.742 134.692 321.82 134.631C322.123 134.397 322.47 133.74 322.562 132.802C322.577 132.661 322.7 132.557 322.843 132.571C322.984 132.585 323.088 132.711 323.074 132.853C322.978 133.826 322.618 134.663 322.135 135.038C321.969 135.166 321.795 135.233 321.626 135.233Z" fill="#07242B"/>
<path d="M320.355 140.519C320.339 140.519 320.321 140.517 320.305 140.514C320.166 140.486 320.075 140.35 320.103 140.211C320.945 135.995 317.504 133.321 317.469 133.295C317.356 133.21 317.333 133.048 317.42 132.934C317.505 132.821 317.667 132.798 317.78 132.885C317.817 132.913 321.514 135.774 320.608 140.313C320.583 140.435 320.475 140.519 320.355 140.519Z" fill="#07242B"/>
<path d="M325.311 131.204C325.194 132.35 324.841 133.453 324.552 134.283C324.484 134.496 324.203 135.735 323.615 135.635C323.078 135.539 322.697 134.7 323.088 131.158C323.136 130.727 323.372 130.325 323.752 130.118C324.712 129.601 325.375 130.58 325.311 131.204Z" fill="#F39779"/>
<path d="M327.405 131.965C327.12 133.081 326.61 134.12 326.202 134.899C326.104 135.099 325.643 136.283 325.077 136.098C324.559 135.924 324.305 135.038 325.213 131.592C325.324 131.173 325.617 130.81 326.024 130.663C327.049 130.291 327.56 131.358 327.405 131.965Z" fill="#F39779"/>
<path d="M323.677 135.899C323.643 135.899 323.608 135.895 323.573 135.889C323.392 135.857 323.134 135.751 322.915 135.426C322.421 134.693 322.394 133.199 322.836 131.105C322.866 130.966 323.003 130.877 323.141 130.906C323.28 130.936 323.369 131.072 323.34 131.211C322.791 133.809 323.105 134.786 323.341 135.138C323.435 135.277 323.545 135.36 323.659 135.381C323.662 135.382 323.996 135.42 324.422 134.04L324.436 133.993C324.48 133.857 324.625 133.783 324.76 133.826C324.896 133.869 324.97 134.015 324.926 134.15L324.913 134.192C324.781 134.625 324.389 135.899 323.677 135.899Z" fill="#07242B"/>
<path d="M325.249 136.126C325.2 136.126 325.152 136.121 325.103 136.111C325.093 136.109 325.083 136.106 325.074 136.103C324.328 135.854 324.05 135.001 324.967 131.526C325.003 131.388 325.144 131.306 325.282 131.343C325.419 131.379 325.501 131.52 325.465 131.658C324.603 134.925 324.906 135.489 325.222 135.608C325.783 135.69 326.691 133.731 327.157 131.901C327.192 131.763 327.332 131.681 327.47 131.716C327.608 131.751 327.691 131.891 327.656 132.029C327.545 132.461 326.57 136.126 325.249 136.126Z" fill="#07242B"/>
<path d="M304.238 171.859C304.096 171.859 303.98 171.745 303.98 171.602C303.98 171.457 303.955 156.976 305.403 150.436C305.434 150.296 305.571 150.209 305.71 150.24C305.849 150.271 305.937 150.408 305.906 150.547C304.469 157.033 304.494 171.456 304.495 171.6C304.496 171.743 304.381 171.858 304.238 171.859Z" fill="#07242B"/>
<path d="M272.454 171.935C272.702 171.22 270.535 167.634 270.199 167.587C262.779 165.784 242.201 161.098 238.814 165.827C237.094 168.226 236.883 170.573 239.608 173.061C245.96 178.864 266.139 176.359 271.198 175.884C271.546 174.528 271.996 173.257 272.454 171.935Z" fill="#F39779"/>
<path d="M306.078 141.107H276.201V181.192H306.078V141.107Z" fill="#F3F3F3"/>
<path d="M276.2 169.994C276.339 169.994 276.452 169.882 276.452 169.742V141.107C276.452 140.968 276.339 140.855 276.2 140.855C276.061 140.855 275.949 140.968 275.949 141.107V169.742C275.949 169.882 276.061 169.994 276.2 169.994Z" fill="#302626"/>
<path d="M288.369 173.418C288.276 173.418 288.185 173.366 288.14 173.277C288.075 173.151 288.125 172.995 288.252 172.931L300.027 166.909C300.154 166.844 300.308 166.895 300.373 167.022C300.438 167.148 300.387 167.304 300.261 167.368L288.486 173.39C288.449 173.408 288.408 173.418 288.369 173.418Z" fill="#07242B"/>
<path d="M292.367 174.114C292.271 174.114 292.178 174.06 292.134 173.967C292.073 173.838 292.128 173.684 292.256 173.623L298.025 170.875C298.154 170.815 298.308 170.869 298.368 170.997C298.429 171.126 298.374 171.28 298.247 171.34L292.477 174.088C292.441 174.106 292.404 174.114 292.367 174.114Z" fill="#07242B"/>
<path d="M268.082 169.573C268.082 169.573 274.081 164.045 276.824 162.644C276.792 162.713 278.586 171.086 278.061 174.192C276.482 175.069 275.607 176.243 271.196 175.882C270.892 174.907 268.082 169.573 268.082 169.573Z" fill="#F39779"/>
<path d="M286.976 172.253C286.846 171.393 283.495 171.183 280.624 171.162C280.619 171.16 280.614 171.158 280.609 171.155C280.227 170.989 280.247 170.436 280.636 170.286C280.984 170.151 281.262 170.05 281.27 170.067C288.234 168.141 289.337 167.109 289.138 166.377C289.004 166.081 288.461 165.996 287.693 166.043C288.722 165.549 288.949 165.142 288.875 164.788C288.429 163.627 281.984 164.967 279.59 165.509C279.442 165.542 279.304 165.417 279.33 165.268C279.33 165.267 279.33 165.265 279.331 165.264C279.346 165.183 279.404 165.115 279.484 165.091C285.265 163.348 287.394 162.124 287.238 161.387C286.689 159.959 276.826 162.646 276.826 162.646L278.063 174.195L280.134 173.665C285.843 173.585 286.969 172.947 286.976 172.253Z" fill="#F39779"/>
<path d="M279.699 167.881C279.578 167.881 279.471 167.797 279.446 167.673C279.419 167.534 279.509 167.398 279.649 167.37L287.642 165.79C287.781 165.762 287.917 165.853 287.945 165.993C287.972 166.133 287.882 166.269 287.742 166.296L279.749 167.876C279.733 167.879 279.716 167.881 279.699 167.881Z" fill="#07242B"/>
<path d="M244.386 166.1C244.285 166.1 244.188 166.04 244.148 165.94C244.095 165.808 244.156 165.657 244.288 165.604L249.272 163.553C249.403 163.498 249.554 163.561 249.608 163.693C249.662 163.825 249.6 163.976 249.468 164.029L244.484 166.08C244.451 166.094 244.418 166.1 244.386 166.1Z" fill="#07242B"/>
<path d="M269.622 169.73C269.598 169.73 269.572 169.726 269.547 169.719C269.411 169.678 269.335 169.533 269.376 169.397L269.953 167.511C269.994 167.375 270.138 167.299 270.274 167.34C270.41 167.382 270.486 167.526 270.445 167.662L269.869 169.548C269.835 169.659 269.733 169.73 269.622 169.73Z" fill="#07242B"/>
</g>
<defs>
<linearGradient id="paint0_linear_809_12291" x1="272.124" y1="5.52758" x2="283.162" y2="5.52758" gradientUnits="userSpaceOnUse">
<stop stop-color="#F2C268"/>
<stop offset="1" stop-color="#F2B067"/>
</linearGradient>
<linearGradient id="paint1_linear_809_12291" x1="69.5308" y1="17.9172" x2="82.953" y2="17.9172" gradientUnits="userSpaceOnUse">
<stop stop-color="#F2C268"/>
<stop offset="1" stop-color="#F2B067"/>
</linearGradient>
<linearGradient id="paint2_linear_809_12291" x1="358.221" y1="164.917" x2="366.97" y2="164.917" gradientUnits="userSpaceOnUse">
<stop stop-color="#F2C268"/>
<stop offset="1" stop-color="#F2B067"/>
</linearGradient>
<linearGradient id="paint3_linear_809_12291" x1="5.02884" y1="184.963" x2="13.7784" y2="184.963" gradientUnits="userSpaceOnUse">
<stop stop-color="#F2C268"/>
<stop offset="1" stop-color="#F2B067"/>
</linearGradient>
<clipPath id="clip0_809_12291">
<rect width="372" height="331" fill="white"/>
</clipPath>
</defs>
</svg>
