<!DOCTYPE svg PUBLIC "-//W3C//DTD SVG 1.1//EN" "http://www.w3.org/Graphics/SVG/1.1/DTD/svg11.dtd">
<!-- Uploaded to: SVG Repo, www.svgrepo.com, Transformed by: SVG Repo Mixer Tools -->
<svg version="1.1" id="Layer_1" xmlns="http://www.w3.org/2000/svg" xmlns:xlink="http://www.w3.org/1999/xlink" viewBox="0 0 420.022 420.022" xml:space="preserve" width="79px" height="79px" fill="#000000">
<g id="SVGRepo_bgCarrier" stroke-width="0"/>
<g id="SVGRepo_tracerCarrier" stroke-linecap="round" stroke-linejoin="round"/>
<g id="SVGRepo_iconCarrier"> <g> <polygon style="fill:#ED4C58;" points="406.279,75.022 13.743,75.022 14.153,420.022 406.689,420.022 "/> <g> <g> <rect x="49.38" y="275.791" style="fill:#96BED6;" width="71" height="133"/> <rect x="54.38" y="280.791" style="fill:#2D4151;" width="61" height="123"/> <path style="opacity:0.2;fill:#FCFAFA;enable-background:new ;" d="M111.814,285.151V400.06h-48 C63.813,400.059,105.934,355.584,111.814,285.151z"/> <rect x="51.88" y="310.291" style="fill:#8EB6CE;" width="66" height="5"/> </g> <g> <rect x="116.38" y="275.791" style="fill:#96BED6;" width="71" height="133"/> <rect x="121.38" y="280.791" style="fill:#2D4151;" width="61" height="123"/> <path style="opacity:0.2;fill:#FCFAFA;enable-background:new ;" d="M178.814,285.151V400.06h-48.001 C130.813,400.059,172.934,355.584,178.814,285.151z"/> <rect x="118.88" y="310.291" style="fill:#8EB6CE;" width="66" height="5"/> </g> </g> <g> <g> <rect x="219.496" y="97.522" style="fill:#96BED6;" width="71" height="110.616"/> <rect x="224.496" y="102.522" style="fill:#2D4151;" width="61" height="100.616"/> <path style="opacity:0.2;fill:#FCFAFA;enable-background:new ;" d="M282.238,110.882v88.909h-37.14 C245.098,199.791,277.688,165.379,282.238,110.882z"/> <rect x="221.996" y="132.022" style="fill:#8EB6CE;" width="66" height="5"/> </g> <g> <rect x="309.467" y="97.522" style="fill:#96BED6;" width="71" height="110.616"/> <rect x="314.467" y="102.522" style="fill:#2D4151;" width="61" height="100.616"/> <path style="opacity:0.2;fill:#FCFAFA;enable-background:new ;" d="M372.209,110.882v88.909h-37.14 C335.07,199.791,367.66,165.379,372.209,110.882z"/> <rect x="311.967" y="132.022" style="fill:#8EB6CE;" width="66" height="5"/> </g> <g> <rect x="39.553" y="97.522" style="fill:#96BED6;" width="71" height="110.616"/> <rect x="44.553" y="102.522" style="fill:#2D4151;" width="61" height="100.616"/> <path style="opacity:0.2;fill:#FCFAFA;enable-background:new ;" d="M102.294,110.882v88.909h-37.14 C65.154,199.791,97.744,165.379,102.294,110.882z"/> <rect x="42.053" y="132.022" style="fill:#8EB6CE;" width="66" height="5"/> </g> <g> <rect x="129.524" y="97.522" style="fill:#96BED6;" width="71" height="110.616"/> <rect x="134.524" y="102.522" style="fill:#2D4151;" width="61" height="100.616"/> <path style="opacity:0.2;fill:#FCFAFA;enable-background:new ;" d="M192.266,110.882v88.909h-37.14 C155.126,199.791,187.716,165.379,192.266,110.882z"/> <rect x="132.024" y="132.022" style="fill:#8EB6CE;" width="66" height="5"/> </g> </g> <g> <g> <rect x="219.496" y="275.791" style="fill:#96BED6;" width="71" height="110.616"/> <rect x="224.496" y="280.791" style="fill:#2D4151;" width="61" height="100.616"/> <path style="opacity:0.2;fill:#FCFAFA;enable-background:new ;" d="M282.238,289.151v88.909h-37.14 C245.098,378.059,277.688,343.648,282.238,289.151z"/> <rect x="221.996" y="310.291" style="fill:#8EB6CE;" width="66" height="5"/> </g> <g> <rect x="309.467" y="275.791" style="fill:#96BED6;" width="71" height="110.616"/> <rect x="314.467" y="280.791" style="fill:#2D4151;" width="61" height="100.616"/> <path style="opacity:0.2;fill:#FCFAFA;enable-background:new ;" d="M372.209,289.151v88.909h-37.14 C335.07,378.059,367.66,343.648,372.209,289.151z"/> <rect x="311.967" y="310.291" style="fill:#8EB6CE;" width="66" height="5"/> </g> </g> <polygon style="fill:#C12525;" points="197.779,420.022 39.804,420.022 39.393,408.791 197.368,408.791 "/> <rect x="9.204" y="186.759" style="fill:#C12525;" width="401.612" height="5.333"/> <g> <rect x="30.779" y="191.356" style="fill:#C12525;" width="5.333" height="48.484"/> <rect x="50.469" y="191.356" style="fill:#C12525;" width="5.333" height="48.484"/> <rect x="70.158" y="191.356" style="fill:#C12525;" width="5.333" height="48.484"/> <rect x="89.847" y="191.356" style="fill:#C12525;" width="5.333" height="48.484"/> <rect x="109.537" y="191.356" style="fill:#C12525;" width="5.333" height="48.484"/> <rect x="129.227" y="191.356" style="fill:#C12525;" width="5.333" height="48.484"/> <rect x="148.917" y="191.356" style="fill:#C12525;" width="5.333" height="48.484"/> <rect x="168.605" y="191.356" style="fill:#C12525;" width="5.333" height="48.484"/> <rect x="188.294" y="191.356" style="fill:#C12525;" width="5.333" height="48.484"/> <rect x="207.984" y="191.356" style="fill:#C12525;" width="5.333" height="48.484"/> <rect x="227.673" y="191.356" style="fill:#C12525;" width="5.333" height="48.484"/> <rect x="247.363" y="191.356" style="fill:#C12525;" width="5.333" height="48.484"/> <rect x="267.053" y="191.356" style="fill:#C12525;" width="5.333" height="48.484"/> <rect x="286.742" y="191.356" style="fill:#C12525;" width="5.333" height="48.484"/> <rect x="306.431" y="191.356" style="fill:#C12525;" width="5.333" height="48.484"/> <rect x="326.121" y="191.356" style="fill:#C12525;" width="5.333" height="48.484"/> <rect x="345.81" y="191.356" style="fill:#C12525;" width="5.333" height="48.484"/> <rect x="365.5" y="191.356" style="fill:#C12525;" width="5.333" height="48.484"/> <rect x="385.189" y="191.356" style="fill:#C12525;" width="5.333" height="48.484"/> </g> <rect x="5.538" y="237.522" style="fill:#C12525;" width="408.945" height="15"/> <rect x="5.538" y="69.522" style="fill:#C12525;" width="408.945" height="15"/> <rect x="13.743" y="84.522" style="fill:#D13F58;" width="392.535" height="8.5"/> <rect x="13.743" y="252.522" style="fill:#D13F58;" width="392.535" height="8.5"/> <polygon style="fill:#C12525;" points="278.418,74.74 255.62,54.74 232.824,74.74 210.022,54.739 187.221,74.739 164.421,54.739 141.62,74.739 118.815,54.739 96.999,73.872 95.021,71.616 118.815,50.749 141.62,70.749 164.421,50.749 187.221,70.749 210.022,50.749 232.824,70.749 255.62,50.748 278.418,70.748 301.212,50.748 325,71.617 323.022,73.871 301.212,54.74 "/> <g> <rect x="96.01" style="fill:#C12525;" width="228" height="54.5"/> <rect x="101.01" y="5" style="fill:#ED4C58;" width="218" height="44.5"/> <g> <path style="fill:#96BED6;" d="M161.697,16.674l5.524,18.077h0.157l5.743-18.077h7.752l-0.157,1.695l-2.761,0.471l1.318,16.822 l2.762,0.439l-0.157,1.726h-8.725l0.157-1.663l2.887-0.439l-1.098-16.068h-0.188l-5.681,18.171h-4.111l-5.492-18.108h-0.157 l-1.192,16.005l3.106,0.439l-0.188,1.663h-8.379l0.157-1.726l2.574-0.439l1.224-16.822l-2.919-0.471l0.158-1.695 C154.01,16.674,161.697,16.674,161.697,16.674z"/> <path style="fill:#96BED6;" d="M194.805,38.171c-1.694,0-3.191-0.256-4.488-0.769c-1.297-0.513-2.385-1.25-3.264-2.212 c-0.879-0.962-1.548-2.123-2.008-3.484c-0.46-1.36-0.691-2.877-0.691-4.55c0-2.134,0.366-3.986,1.099-5.555 c0.732-1.569,1.82-2.814,3.264-3.735c0.753-0.481,1.621-0.858,2.604-1.13c0.984-0.271,2.123-0.408,3.421-0.408 c1.653,0,3.128,0.246,4.425,0.737c1.297,0.492,2.391,1.208,3.28,2.15c0.889,0.941,1.564,2.082,2.024,3.421 c0.46,1.339,0.69,2.856,0.69,4.551c0,2.197-0.372,4.095-1.114,5.696c-0.743,1.601-1.794,2.84-3.154,3.719 c-0.795,0.502-1.7,0.89-2.715,1.161C197.163,38.035,196.04,38.171,194.805,38.171z M195.214,36.037 c0.774,0,1.491-0.083,2.15-0.251c0.659-0.167,1.323-0.397,1.993-0.69c0.733-0.942,1.308-2.108,1.727-3.499 c0.418-1.391,0.628-2.829,0.628-4.315c0-1.15-0.142-2.26-0.424-3.327s-0.722-2.003-1.318-2.809 c-0.596-0.805-1.36-1.448-2.291-1.93s-2.045-0.722-3.342-0.722c-0.795,0-1.543,0.089-2.244,0.267s-1.324,0.392-1.867,0.644 c-0.795,0.962-1.397,2.123-1.805,3.483c-0.408,1.361-0.612,2.793-0.612,4.3c0,1.214,0.136,2.359,0.408,3.436 c0.272,1.078,0.706,2.014,1.303,2.809c0.596,0.795,1.365,1.428,2.307,1.899C192.766,35.802,193.895,36.037,195.214,36.037z"/> <path style="fill:#96BED6;" d="M227.255,23.233l-2.165,0.22l-0.597-4.614h-5.053v16.822l3.264,0.439l-0.157,1.726h-9.634 l0.157-1.726l3.138-0.439V18.839h-5.084l-0.565,4.394l-2.197,0.22l-0.22-6.779h19.332L227.255,23.233z"/> <path style="fill:#96BED6;" d="M247.372,16.674l-0.22,6.528l-2.103,0.251l-0.565-4.614h-8.881v7.407h4.582l-0.157-2.354 l2.511-0.157l-0.252,7.501l-1.694,0.157l-0.314-3.044h-4.676v7.312h9.132l0.565-4.708l2.134-0.22l0.22,7.093h-17.857l0.157-1.726 l2.48-0.439V18.839l-2.636-0.471l0.157-1.695L247.372,16.674L247.372,16.674z"/> <path style="fill:#96BED6;" d="M250.509,36.1l2.48-0.439V18.839l-2.636-0.439l0.157-1.726h9.008l-0.189,1.726l-3.107,0.439 v16.822h8.003l0.596-4.708l2.197-0.22l0.188,7.093h-16.853L250.509,36.1z"/> </g> <g> <polygon style="fill:#C12525;" points="118.01,16.08 121.639,23.434 129.755,24.613 123.883,30.337 125.269,38.42 118.01,34.604 110.752,38.42 112.138,30.337 106.265,24.613 114.382,23.434 "/> <polygon style="fill:#C12525;" points="302.01,16.08 305.64,23.434 313.756,24.613 307.884,30.337 309.27,38.42 302.01,34.604 294.753,38.42 296.139,30.337 290.266,24.613 298.382,23.434 "/> </g> </g> </g> </g>
</svg>