<?xml version="1.0" encoding="utf-8"?>
<svg viewBox="-37.4163 -15.098 324.2746 90.588" overflow="visible" xmlns="http://www.w3.org/2000/svg">
  <path d="M75.695 14.958c-8.41 0-15.234 6.823-15.234 15.238 0 8.413 6.824 15.237 15.234 15.237 8.419 0 15.24-6.824 15.24-15.237 0-8.415-6.82-15.238-15.24-15.238" fill="#ED1C24"/>
  <path fill="#FFF" d="M68.447 32.271h14.396v4.545H68.447z"/>
  <path d="M 75.177 25.479 C 75.365 25.719 75.525 25.79 75.694 25.793 C 75.866 25.789 76.018 25.729 76.206 25.479 C 76.206 25.479 78.611 22.318 78.737 22.166 C 79.062 21.762 79.454 21.762 79.779 22.164 L 82.844 26.045 L 82.844 32.272 L 79.8 28.363 C 79.443 27.915 79.035 27.913 78.675 28.363 C 78.554 28.521 76.217 31.616 76.217 31.616 C 75.854 32.075 75.505 32.075 75.146 31.616 C 75.146 31.616 72.753 28.505 72.646 28.363 C 72.297 27.922 71.906 27.913 71.526 28.363 L 68.448 32.272 L 68.446 26.064 C 68.446 26.064 71.379 22.387 71.566 22.165 C 71.897 21.763 72.296 21.763 72.622 22.162 L 75.177 25.479 M 92.439 23.045 C 91.591 23.045 90.905 22.347 90.905 21.485 C 90.905 20.623 91.591 19.924 92.439 19.924 C 93.287 19.924 93.976 20.623 93.976 21.485 C 93.976 22.347 93.288 23.045 92.439 23.045 M 92.439 19.673 C 91.439 19.673 90.627 20.485 90.627 21.486 C 90.627 22.486 91.439 23.298 92.439 23.298 C 93.439 23.298 94.251 22.486 94.251 21.486 C 94.251 20.484 93.44 19.673 92.439 19.673 Z" fill="#FFF"/>
</svg>